# xmcd
#
# Track frame offsets:
#	150
#	11155
#	26955
#	39977
#	50825
#	61900
#	74690
#	84877
#	99860
#	113140
#	129952
#	141507
#	154282
#	163617
#	178175
#	189022
#	199575
#	212437
#	226917
#	240045
#
# Disc length: 3330 seconds
#
# Revision: 1
# Processed by: cddbd v1.5.2PL0 Copyright (c) Steve Scherf et al.
# Submitted via: audiograbber 1.83.01
#
DISCID=070d0014
DTITLE=Boxcar Willie - 20 Greatest Hits
DYEAR=1900
DGENRE=Country
TTITLE0=Last Train To Heaven
TTITLE1=From A Boxcar Door
TTITLE2='T' For Texas
TTITLE3=Hobo's Lament
TTITLE4=Freight Train Blues
TTITLE5=Not On The Bottom Yet
TTITLE6=Bummin' Around
TTITLE7=Train Medley
TTITLE8=Country Music Nightmare
TTITLE9=Take Me Home
TTITLE10=We Made Memories
TTITLE11=Lonesome Joe
TTITLE12=Hank, You Still Make Me Cry
TTITLE13=Blue Blue Days, Blue Blue Nights
TTITLE14=To My Baby I'm A Big Star All The Time
TTITLE15=No More Trains To Ride
TTITLE16=I Love The Sound Of A Whistle
TTITLE17=Whine, Whistle, Whine
TTITLE18=Lefty Left Us Lonely
TTITLE19=Keep On Rollin' Down The Line
EXTD=
EXTT0=
EXTT1=
EXTT2=
EXTT3=
EXTT4=
EXTT5=
EXTT6=
EXTT7=
EXTT8=
EXTT9=
EXTT10=
EXTT11=
EXTT12=
EXTT13=
EXTT14=
EXTT15=
EXTT16=
EXTT17=
EXTT18=
EXTT19=
PLAYORDER=
